<?xml version="1.0" standalone="no"?>
<!DOCTYPE svg PUBLIC "-//W3C//DTD SVG 20010904//EN"
 "http://www.w3.org/TR/2001/REC-SVG-20010904/DTD/svg10.dtd">
<svg version="1.0" xmlns="http://www.w3.org/2000/svg"
 width="140.000000pt" height="54.000000pt" viewBox="0 0 140.000000 54.000000"
 preserveAspectRatio="xMidYMid meet">
<metadata>
Created by potrace 1.16, written by Peter Selinger 2001-2019
</metadata>
<g transform="translate(0.000000,54.000000) scale(0.100000,-0.100000)"
fill="#000000" stroke="none">
<path d="M1092 453 c-27 -49 -66 -119 -88 -158 l-39 -70 -3 98 -3 97 -64 0
-65 0 0 -155 0 -155 -415 0 -415 0 0 -55 0 -55 420 0 420 0 0 50 0 50 84 0
c80 0 86 2 113 29 23 22 237 366 251 403 2 4 -30 8 -72 8 l-75 0 -49 -87z"/>
<path d="M90 327 c-22 -11 -25 -20 -28 -77 -4 -83 5 -90 113 -90 93 0 105 7
105 62 l0 38 -65 0 c-51 0 -65 -3 -65 -15 0 -11 12 -15 50 -15 36 0 50 -4 50
-14 0 -19 -22 -26 -85 -26 -63 0 -78 13 -73 67 l3 38 65 3 c37 2 74 -2 87 -9
26 -14 38 -7 29 16 -13 34 -134 48 -186 22z"/>
<path d="M340 327 c-23 -11 -25 -19 -28 -90 -2 -64 0 -77 13 -77 11 0 15 10
15 35 l0 35 78 0 c48 0 85 5 96 13 26 19 18 68 -14 84 -32 16 -128 16 -160 0z"/>
<path d="M1192 318 c-7 -7 -12 -18 -12 -25 0 -15 26 -18 35 -3 3 6 37 10 76
10 52 0 69 -3 69 -14 0 -16 -21 -26 -56 -26 -15 0 -24 -6 -24 -15 0 -11 11
-15 41 -15 33 0 40 -3 37 -17 -3 -15 -14 -18 -68 -17 -36 0 -75 4 -87 9 -30
10 -32 -19 -4 -35 31 -16 167 -13 184 5 18 17 21 122 5 143 -14 16 -179 17
-196 0z"/>
</g>
</svg>
