<svg xmlns="http://www.w3.org/2000/svg" xmlns:xlink="http://www.w3.org/1999/xlink" viewBox="0 0 200 200"><defs><style>.cls-1{fill:#000000;}.cls-2{fill:url(#linear-gradient);}</style><linearGradient id="linear-gradient" y1="200" x2="1" y2="200" gradientTransform="translate(35.69 -31916.25) scale(123.46 160.08)" gradientUnits="userSpaceOnUse"><stop offset="0" stop-color="#000000"/><stop offset="0.5" stop-color="#000000"/><stop offset="1" stop-color="#000000"/></linearGradient></defs><title>Asset 1</title><g id="Layer_2" data-name="Layer 2"><g id="Layer_1-2" data-name="Layer 1"><path class="cls-1" d="M200,200H0V0H200ZM5,196H196V4H5Z"/><path class="cls-1" d="M191,192H9V7H191ZM11.05,190H189V9H11V190Z"/><path class="cls-2" d="M149.75,103.4a51.6,51.6,0,0,1-23.4,19.2l32.8,57.4H128.5L82.21,100l23.74.2a25.39,25.39,0,0,0,18.6-7.8,25.39,25.39,0,0,0,8-19,24.84,24.84,0,0,0-8-18.6A25.39,25.39,0,0,0,106,47H52.62l-3-3L35.69,20H106a51.35,51.35,0,0,1,37.6,15.6c10.4,10.6,15.6,23,15.6,37.6A50.56,50.56,0,0,1,149.75,103.4Z"/></g></g></svg>